<svg width="33" height="32" viewBox="0 0 33 32" fill="none" xmlns="http://www.w3.org/2000/svg">
<g clip-path="url(#clip0_126_6457)">
<rect x="-1.97545" y="6.66664" width="16.381" height="29.3333" rx="2.47619" fill="#0A84FF" fill-opacity="0.1" stroke="#007AFF" stroke-width="1.14286"/>
<path d="M14.9766 12.1904H15.3575C15.5679 12.1904 15.7385 12.361 15.7385 12.5714V18.6666C15.7385 18.877 15.5679 19.0476 15.3575 19.0476H14.9766V12.1904Z" fill="#007AFF"/>
<path d="M10.2787 6.89989L10.2885 6.68764C10.2925 6.60286 10.3355 6.52471 10.4051 6.47614H-1.02344V8.76185H8.41677C9.4451 8.76185 10.2787 7.92822 10.2787 6.89989Z" fill="#007AFF"/>
<path d="M18.4062 15.6217C18.4062 15.4089 18.4973 15.1857 18.6389 15.0456L21.922 11.6777C22.0839 11.5116 22.271 11.4286 22.4582 11.4286C22.9034 11.4286 23.2069 11.7451 23.2069 12.1655C23.2069 12.4042 23.1057 12.5858 22.9641 12.7259L21.8158 13.9091L20.7686 14.9003L21.8613 14.8381H26.7549C27.2304 14.8381 27.5491 15.1546 27.5491 15.6217C27.5491 16.0887 27.2304 16.4001 26.7549 16.4001H21.8613L20.7686 16.343L21.8158 17.329L22.9641 18.507C23.1057 18.6523 23.2069 18.8339 23.2069 19.0675C23.2069 19.4878 22.9034 19.8095 22.4582 19.8095C22.271 19.8095 22.0839 19.7265 21.927 19.5656L18.6389 16.1925C18.4973 16.0524 18.4062 15.8292 18.4062 15.6217Z" fill="#007AFF"/>
</g>
<rect x="1.2619" y="0.761905" width="30.4762" height="30.4762" rx="15.2381" stroke="#007AFF" stroke-width="1.52381"/>
<defs>
<clipPath id="clip0_126_6457">
<rect x="0.5" width="32" height="32" rx="16" fill="white"/>
</clipPath>
</defs>
</svg>
